<svg id="Layer_1" data-name="Layer 1" xmlns="http://www.w3.org/2000/svg" viewBox="0 0 1980 1982.89"><defs><style>.cls-1{fill:#995f13;}.cls-2{fill:#f1f2f2;}.cls-3{fill:#facb34;}.cls-4{fill:#f8db1d;}.cls-5{fill:#f8a81d;}.cls-6{fill:#bcbbbb;}.cls-7{fill:#ea6552;}</style></defs><title>email-icon</title><polygon class="cls-1" points="990 0 0 821.11 0 1982.89 1980 1982.89 1980 821.11 990 0"/><path class="cls-2" d="M1093.62-281.18C1027.12-315.64,924.69-418,867.68-463.86L-273.6-466.21V881.85H1096.31Z" transform="translate(578.65 635.18)"/><polygon class="cls-3" points="0 821.11 820.98 1402 0 1982.89 0 821.11"/><polygon class="cls-4" points="0 821.11 0 832.49 804.9 1402 0 1971.52 0 1982.89 820.98 1402 0 821.11"/><polygon class="cls-3" points="1980 821.11 1159.02 1402 1980 1982.89 1980 821.11"/><polygon class="cls-4" points="1980 821.11 1980 832.49 1175.1 1402 1980 1971.52 1980 1982.89 1159.02 1402 1980 821.11"/><polygon class="cls-5" points="1159.71 1402 820.98 1402 820.98 1401.52 0 1982.89 1980 1982.89 1159.71 1402"/><polygon class="cls-6" points="1450.33 172.12 1447.12 372.43 1672.27 354 1450.33 172.12"/><path class="cls-7" d="M573.94-57.58a64.15,64.15,0,0,0,.78-9.67q0-41.22-51.56-41.15c-16.51,0-27.63,2.82-33.4,8.39s-9.86,16.84-12.21,33.6Q457.78-94.25,437.71-104c-12.32-5.9-29.94-8.83-52.73-8.83q-88.12,0-152.75,89.6-59.46,82.4-59.41,176,0,73.08,38.57,128.42,42.78,61,111.77,61,59,0,113.33-42.34Q461,342.24,520,342.23q111.76,0,191.32-94.39Q786.92,158,786.92,41.39,786.92-98,669.6-191.17,560.9-277.39,420.82-277.46q-182.37,0-306.31,115.34-127.58,119-127.59,303.6,0,188.76,130.72,290Q235,522.62,425.5,522.54A501.35,501.35,0,0,0,583.8,497.1q84.66-27.75,139.35-79.05A244.42,244.42,0,0,0,757,376.94c13.43-19.68,20.06-35.55,20.06-47.6a35.49,35.49,0,0,0-9.62-24.46c-6.4-7.13-14.1-10.7-23-10.7-16.84,0-31,5.95-42.57,17.71-19.09,20.51-33.3,36.14-42.48,46.88q-93.75,81.9-233.11,81.89-149.55,0-239.3-73.39-98.08-80.2-98-229.78,0-145.16,93.3-242.57t235-97.36q111.47,0,185.39,63.36Q681.9-71.82,681.8,39.83q0,58.47-20.08,108.84-22.41,56.47-64.94,87.05-31.93,22.93-50,23-19.71,0-19.69-18.51c0-5.12,3.37-28.74,10.25-71ZM422.37,165q-36.24,100.56-77.14,100.59-61.1,0-61.09-78,0-60.56,35.1-136.52,41-89.71,93.26-89.69,21.71,0,32.29,23.38,8.63,17.88,8.64,42.48,0,52.59-31.06,137.75Zm0,0" transform="translate(578.65 635.18)"/></svg>