<svg xmlns="http://www.w3.org/2000/svg" viewBox="0 0 2015 2847.7"><defs><style>.cls-1{fill:#72716f;}.cls-1,.cls-2,.cls-7,.cls-8{stroke:#272525;}.cls-1,.cls-2,.cls-7,.cls-8,.cls-9{stroke-miterlimit:10;}.cls-1,.cls-2,.cls-7{stroke-width:35px;}.cls-2{fill:#facb34;}.cls-3{fill:#eab531;}.cls-4{fill:#f7db5e;}.cls-5{fill:#58595a;}.cls-6{fill:#3e3d40;}.cls-7{fill:#fff;}.cls-8,.cls-9{fill:none;}.cls-9{stroke:#6eb253;stroke-width:68px;}</style></defs><title>lock-done-icon</title><g id="Object"><path class="cls-1" d="M1036.26,554.24H877.44V25.58c0-221.46-169.26-408.58-390.11-425C240-417.89,32.78-222,32.78,21.24v533H-129.66V26.89c0-322.31,259.13-587.91,581.44-588.73,322.14-.83,584.48,261.06,584.48,583.08Z" transform="translate(392.61 579.35)"/><rect class="cls-2" x="17.5" y="880.92" width="1660.44" height="1122.6" rx="62.5"/><path class="cls-3" d="M1255.42,1343.93V749.79c-491.68,416-1200.6,572.29-1602.33,629.65a60.55,60.55,0,0,0,49.14,25.27H1194.64A60.78,60.78,0,0,0,1255.42,1343.93Z" transform="translate(392.61 579.35)"/><path class="cls-4" d="M-297.25,458.3V673c5.69-91.18,49.57-289.59,324-289.59H-222.38A75.09,75.09,0,0,0-297.25,458.3Z" transform="translate(392.61 579.35)"/><path class="cls-5" d="M584,751.58A112.66,112.66,0,1,0,404.36,842L368.5,1096.76H574.21L538.35,842A112.35,112.35,0,0,0,584,751.58Z" transform="translate(392.61 579.35)"/><path class="cls-6" d="M368.5,1096.76S521.16,1053.61,538.35,842l35.86,254.76Z" transform="translate(392.61 579.35)"/><circle class="cls-7" cx="1597.22" cy="1935.64" r="400.28"/><line class="cls-8" x1="345.08" y1="2646.88" x2="566.26" y2="2847.33"/><line class="cls-9" x1="1386.48" y1="1944.16" x2="1573.11" y2="2141.02"/><line class="cls-9" x1="1525.3" y1="2139.46" x2="1872.19" y2="1813.7"/></g></svg>