<svg xmlns="http://www.w3.org/2000/svg" viewBox="0 0 2015 2861.88"><defs><style>.cls-1{fill:#72716f;}.cls-1,.cls-2,.cls-7,.cls-9{stroke:#272525;stroke-miterlimit:10;}.cls-1,.cls-2,.cls-7{stroke-width:35px;}.cls-2{fill:#facb34;}.cls-3{fill:#eab531;}.cls-4{fill:#f7db5e;}.cls-5{fill:#58595a;}.cls-6{fill:#3e3d40;}.cls-7{fill:#fff;}.cls-8{font-size:667.14px;font-family:ArialMT, Arial;}.cls-9{fill:none;}</style></defs><title>lock-question-icon</title><g id="Object"><path class="cls-1" d="M1020.14,540.06H861.31V11.4c0-221.46-169.26-408.58-390.1-425C223.84-432.07,16.65-236.22,16.65,7.06v533H-145.78V12.71c0-322.31,259.13-587.91,581.44-588.74C757.8-576.85,1020.14-315,1020.14,7.06Z" transform="translate(408.74 593.53)"/><rect class="cls-2" x="17.5" y="880.92" width="1660.44" height="1122.6" rx="62.5"/><path class="cls-3" d="M1239.29,1329.75V735.61C747.62,1151.6,38.69,1307.9-363,1365.26a60.59,60.59,0,0,0,49.15,25.27h1492.4A60.78,60.78,0,0,0,1239.29,1329.75Z" transform="translate(408.74 593.53)"/><path class="cls-4" d="M-313.37,444.12V658.84c5.68-91.18,49.56-289.59,324-289.59H-238.5A75.09,75.09,0,0,0-313.37,444.12Z" transform="translate(408.74 593.53)"/><path class="cls-5" d="M567.89,737.4a112.66,112.66,0,1,0-179.65,90.42l-35.86,254.76h205.7L522.23,827.82A112.38,112.38,0,0,0,567.89,737.4Z" transform="translate(408.74 593.53)"/><path class="cls-6" d="M352.38,1082.58S505,1039.43,522.23,827.82l35.85,254.76Z" transform="translate(408.74 593.53)"/><circle class="cls-7" cx="1597.22" cy="1935.64" r="400.28"/><text class="cls-8" transform="translate(1422.82 2178.42)">?</text><line class="cls-9" x1="361.2" y1="2661.06" x2="582.38" y2="2861.51"/></g></svg>