<svg xmlns="http://www.w3.org/2000/svg" viewBox="0 0 2015 2861.88"><defs><style>.cls-1{fill:#72716f;}.cls-1,.cls-2,.cls-7,.cls-8{stroke:#272525;stroke-miterlimit:10;}.cls-1,.cls-2,.cls-7{stroke-width:35px;}.cls-2{fill:#facb34;}.cls-3{fill:#eab531;}.cls-4{fill:#f7db5e;}.cls-5{fill:#58595a;}.cls-6{fill:#3e3d40;}.cls-7{fill:#fff;}.cls-8{fill:none;}.cls-9{fill:#1b1b1b;}</style></defs><title>lock-question-icon</title><g id="Object"><path class="cls-1" d="M1020.14,540.06H861.31V11.4c0-221.46-169.26-408.58-390.1-425C223.84-432.07,16.65-236.22,16.65,7.06v533H-145.78V12.71c0-322.31,259.13-587.91,581.44-588.74C757.8-576.85,1020.14-315,1020.14,7.06Z" transform="translate(408.74 593.53)"/><rect class="cls-2" x="17.5" y="880.92" width="1660.44" height="1122.6" rx="62.5"/><path class="cls-3" d="M1239.29,1329.75V735.61C747.62,1151.6,38.69,1307.9-363,1365.26a60.59,60.59,0,0,0,49.15,25.27h1492.4A60.78,60.78,0,0,0,1239.29,1329.75Z" transform="translate(408.74 593.53)"/><path class="cls-4" d="M-313.37,444.12V658.84c5.68-91.18,49.56-289.59,324-289.59H-238.5A75.09,75.09,0,0,0-313.37,444.12Z" transform="translate(408.74 593.53)"/><path class="cls-5" d="M567.89,737.4a112.66,112.66,0,1,0-179.65,90.42l-35.86,254.76h205.7L522.23,827.82A112.38,112.38,0,0,0,567.89,737.4Z" transform="translate(408.74 593.53)"/><path class="cls-6" d="M352.38,1082.58S505,1039.43,522.23,827.82l35.85,254.76Z" transform="translate(408.74 593.53)"/><circle class="cls-7" cx="1597.22" cy="1935.64" r="400.28"/><line class="cls-8" x1="361.2" y1="2661.06" x2="582.38" y2="2861.51"/><rect class="cls-9" x="1561.71" y="2087.36" width="85.76" height="85.76" rx="7.31"/><path class="cls-9" d="M1232.36,1464.84h-81.28a7.31,7.31,0,0,1-7.32-7.31c0-.17,0-.33,0-.5-.1-5.51-.18-10-.23-13.56-.08-4.8-.11-7.27-.11-7.38a190.22,190.22,0,0,1,3.43-37.42,118.39,118.39,0,0,1,10.45-30.84h0v0h0a1.71,1.71,0,0,1,.13-.23q7-13.56,20.62-28.48a316.6,316.6,0,0,1,33.5-31.06q19.21-15.62,31-26.16,11.18-10,14.51-14.37h0c.16-.21.33-.41.5-.6a49.82,49.82,0,0,0,7.31-13.69,47.78,47.78,0,0,0,2.58-15.7c0-15.23-6.15-28.32-18.44-39.37h0l0,0h0l-.21-.19a61.55,61.55,0,0,0-21.69-12.26,93.42,93.42,0,0,0-29.47-4.28,89.18,89.18,0,0,0-29,4.47,72.16,72.16,0,0,0-23.45,13.26,75.6,75.6,0,0,0-17.63,22.43q-7.36,13.86-11.5,32.85h0a7.31,7.31,0,0,1-8.26,5.67l-81.93-10.2h0a7.32,7.32,0,0,1-6.35-8.17v0a141.89,141.89,0,0,1,14.59-55.1q12.78-25.51,36.37-46.37l4.83,5.45-4.84-5.48.25-.21a157.85,157.85,0,0,1,54.47-31.09q30.79-10.37,68.62-10.36,39.63,0,71.43,10.47a158.6,158.6,0,0,1,56.14,31.76q23.88,21.13,35.93,45.89a120.67,120.67,0,0,1,12.15,53.47,106.86,106.86,0,0,1-4.51,30.81,117.85,117.85,0,0,1-13.39,29.12l-6.17-3.89,6.19,3.9-.19.3q-8.84,13.79-27.22,32.29-18,18.15-45.72,41.15a243.69,243.69,0,0,0-22.33,20.69q-8,8.63-11,14.83t-4.32,17.72a226.67,226.67,0,0,0-1.19,30.37h0a7.3,7.3,0,0,1-7.18,7.44Z" transform="translate(408.74 593.53)"/></g></svg>