<svg id="Layer_3" data-name="Layer 3" xmlns="http://www.w3.org/2000/svg" xmlns:xlink="http://www.w3.org/1999/xlink" viewBox="0 0 1980 2271.44"><defs><style>.cls-1{fill:url(#White_Black);}.cls-2{fill:url(#White_Black-2);}.cls-3{fill:url(#White_Black-3);}.cls-4{fill:url(#White_Black-4);}.cls-5{mask:url(#mask);}.cls-6{mask:url(#mask-2);}.cls-7{mask:url(#mask-3);}.cls-8{mask:url(#mask-4);}.cls-9{fill:#fff;}.cls-10{fill:#e7e6e6;}</style><linearGradient id="White_Black" x1="-2974.44" y1="314.98" x2="-3125.18" y2="213.7" gradientTransform="translate(927.84 -132.52) rotate(-180)" gradientUnits="userSpaceOnUse"><stop offset="0" stop-color="#fff"/><stop offset="1" stop-color="#231f20"/></linearGradient><linearGradient id="White_Black-2" x1="4912.01" y1="686.83" x2="4426.19" y2="360.44" gradientTransform="translate(-1872.64 -4487.17) rotate(90)" xlink:href="#White_Black"/><linearGradient id="White_Black-3" x1="5203.35" y1="1408.49" x2="4717.53" y2="1082.1" gradientTransform="translate(-7117.17 -1678.51)" xlink:href="#White_Black"/><linearGradient id="White_Black-4" x1="1793.98" y1="123.08" x2="1570.25" y2="-27.22" gradientTransform="matrix(-1, 0, 0, -1, 993.2, 448.72)" xlink:href="#White_Black"/><mask id="mask" x="4322.01" y="311.23" width="168.2" height="109.01" maskUnits="userSpaceOnUse"><g transform="translate(371.62 724.32)"><rect class="cls-1" x="3955.36" y="-403.63" width="158.25" height="90.1" transform="translate(75.54 497.24) rotate(-7.12)"/></g></mask><mask id="mask-2" x="-2077.46" y="452.11" width="351.34" height="542.08" maskUnits="userSpaceOnUse"><g transform="translate(371.62 724.32)"><rect class="cls-2" x="-2418.6" y="-256.19" width="290.37" height="510.03" transform="translate(-17.38 -281.76) rotate(-7.12)"/></g></mask><mask id="mask-3" x="-2239.27" y="-7.43" width="542.08" height="351.34" maskUnits="userSpaceOnUse"><g transform="translate(371.62 724.32)"><rect class="cls-3" x="-2594.86" y="-701.26" width="510.03" height="290.37" transform="translate(50.88 -294.27) rotate(-7.12)"/></g></mask><mask id="mask-4" x="-357.8" y="1100.79" width="249.63" height="161.8" maskUnits="userSpaceOnUse"><g transform="translate(371.62 724.32)"><rect class="cls-4" x="-722.04" y="390.52" width="234.87" height="133.72" transform="translate(-61.35 -71.41) rotate(-7.12)"/></g></mask></defs><title>logoWhite</title><path class="cls-9" d="M70.17-724.32S-5-13.35,359.18,356.59,1008,861.28,739.23,1241c0,0,585.25-379.69,284.68-890.16C728.15-151.49,168.43,44.46,70.17-724.32Z" transform="translate(371.62 724.32)"/><path class="cls-10" d="M760.71,1026.63c14.78-214.39-213.05-359.52-485.37-636.16C167.16,280.57,97.75,140.57,53.62-1.94-112.85-72.89-262.72-196.07-371.62-497.2c0,0,81.73,710.25,517.8,991.85C480.85,710.77,739.59,801.93,760.71,1026.63Z" transform="translate(371.62 724.32)"/><path class="cls-9" d="M858.81,36.35S1125.72,239.11,1173,406.92c0,0,187.14-451,435.36-395,0,0-155.32-298.59-435.36-178.3C1030.37-105.14,990.23-19.59,858.81,36.35Z" transform="translate(371.62 724.32)"/><path class="cls-9" d="M97.66,543.23s648.77,590.94,227.68,693.15c-430.92,104.6-615-53.46-615-53.46s178.55,359.82,364.15,364.15S710,1274.84,710,1134.17C710,944.48,97.66,543.23,97.66,543.23Z" transform="translate(371.62 724.32)"/><path class="cls-10" d="M70.17-724.32S-5-13.35,359.18,356.59,1008,861.27,739.23,1241c0,0,549.68-323.54,96.37-704.89C384.24,156.35,168.43,44.45,70.17-724.32Z" transform="translate(371.62 724.32)"/></svg>