<svg id="Layer_3" data-name="Layer 3" xmlns="http://www.w3.org/2000/svg" xmlns:xlink="http://www.w3.org/1999/xlink" viewBox="0 0 1980 2271.44"><defs><style>.cls-1{fill:url(#White_Black);}.cls-2{fill:url(#White_Black-2);}.cls-3{fill:url(#White_Black-3);}.cls-4{fill:url(#White_Black-4);}.cls-5{mask:url(#mask);}.cls-6{mask:url(#mask-2);}.cls-7{mask:url(#mask-3);}.cls-8{mask:url(#mask-4);}.cls-9{fill:#4481eb;}.cls-10{fill:#285ebd;}</style><linearGradient id="White_Black" x1="-2974.44" y1="314.98" x2="-3125.18" y2="213.7" gradientTransform="translate(927.84 -132.52) rotate(-180)" gradientUnits="userSpaceOnUse"><stop offset="0" stop-color="#fff"/><stop offset="1" stop-color="#231f20"/></linearGradient><linearGradient id="White_Black-2" x1="4912.01" y1="686.83" x2="4426.19" y2="360.44" gradientTransform="translate(-1872.64 -4487.17) rotate(90)" xlink:href="#White_Black"/><linearGradient id="White_Black-3" x1="5203.35" y1="1408.49" x2="4717.53" y2="1082.1" gradientTransform="translate(-7117.17 -1678.51)" xlink:href="#White_Black"/><linearGradient id="White_Black-4" x1="1793.98" y1="123.08" x2="1570.25" y2="-27.22" gradientTransform="matrix(-1, 0, 0, -1, 993.2, 448.72)" xlink:href="#White_Black"/><mask id="mask" x="4440.39" y="322.28" width="168.2" height="109.01" maskUnits="userSpaceOnUse"><g transform="translate(490 735.37)"><rect class="cls-1" x="3955.36" y="-403.63" width="158.25" height="90.1" transform="translate(75.54 497.24) rotate(-7.12)"/></g></mask><mask id="mask-2" x="-1959.08" y="463.16" width="351.34" height="542.08" maskUnits="userSpaceOnUse"><g transform="translate(490 735.37)"><rect class="cls-2" x="-2418.6" y="-256.19" width="290.37" height="510.03" transform="translate(-17.38 -281.76) rotate(-7.12)"/></g></mask><mask id="mask-3" x="-2120.89" y="3.63" width="542.08" height="351.34" maskUnits="userSpaceOnUse"><g transform="translate(490 735.37)"><rect class="cls-3" x="-2594.86" y="-701.26" width="510.03" height="290.37" transform="translate(50.88 -294.27) rotate(-7.12)"/></g></mask><mask id="mask-4" x="-239.42" y="1111.85" width="249.63" height="161.8" maskUnits="userSpaceOnUse"><g transform="translate(490 735.37)"><rect class="cls-4" x="-722.04" y="390.52" width="234.87" height="133.72" transform="translate(-61.35 -71.41) rotate(-7.12)"/></g></mask></defs><title>logo</title><path class="cls-9" d="M-48.21-735.37s-75.14,711,289,1080.9,648.84,504.69,380.06,884.38c0,0,585.25-379.69,284.67-890.16C609.77-162.54,50.06,33.4-48.21-735.37Z" transform="translate(490 735.37)"/><path class="cls-10" d="M642.33,1015.57C657.12,801.19,429.28,656.06,157,379.41,48.78,269.51-20.63,129.52-64.76-13-231.22-83.95-381.1-207.12-490-508.25c0,0,81.73,710.24,517.81,991.85C362.47,699.71,621.21,790.88,642.33,1015.57Z" transform="translate(490 735.37)"/><path class="cls-9" d="M740.44,25.29s266.9,202.77,314.21,370.57c0,0,187.14-451,435.35-395,0,0-155.31-298.58-435.35-178.29C912-116.19,871.85-30.64,740.44,25.29Z" transform="translate(490 735.37)"/><path class="cls-9" d="M-20.71,532.18S628.05,1123.12,207,1225.33c-430.92,104.6-615-53.47-615-53.47S-229.5,1531.68-43.9,1536s635.5-272.23,635.5-412.9C591.6,933.43-20.71,532.18-20.71,532.18Z" transform="translate(490 735.37)"/><path class="cls-10" d="M-48.21-735.37s-75.14,711,289,1080.9,648.83,504.69,380.05,884.38c0,0,549.68-323.54,96.37-704.9C265.86,145.29,50.06,33.4-48.21-735.37Z" transform="translate(490 735.37)"/></svg>